<mxfile host="app.diagrams.net" modified="2023-09-15T03:02:55.862Z" agent="Mozilla/5.0 (Windows NT 10.0; Win64; x64) AppleWebKit/537.36 (KHTML, like Gecko) Chrome/116.0.0.0 Safari/537.36" etag="lbchQkrWrYH-Rbk9k0fJ" version="21.7.2" type="github">
  <diagram name="第 1 页" id="4jItoH7hiNGBiSz6dYL6">
    <mxGraphModel dx="1562" dy="1657" grid="1" gridSize="10" guides="1" tooltips="1" connect="1" arrows="1" fold="1" page="1" pageScale="1" pageWidth="1169" pageHeight="827" math="0" shadow="0">
      <root>
        <mxCell id="0" />
        <mxCell id="1" parent="0" />
        <mxCell id="yqzfMos9_s5q--L2E6B0-1" value="" style="rounded=1;whiteSpace=wrap;html=1;fillColor=#b1ddf0;strokeColor=#10739e;align=center;horizontal=1;verticalAlign=middle;movable=1;resizable=1;rotatable=1;deletable=1;editable=1;locked=0;connectable=1;" vertex="1" parent="1">
          <mxGeometry x="150" y="-200" width="830" height="750" as="geometry" />
        </mxCell>
        <mxCell id="yqzfMos9_s5q--L2E6B0-2" value="&lt;font style=&quot;font-size: 20px;&quot;&gt;Container 1&lt;br&gt;&lt;br&gt;&lt;br&gt;&lt;br&gt;env: ...&lt;br&gt;command: ...&lt;br&gt;volumes: ...&lt;br&gt;&lt;/font&gt;" style="rounded=1;whiteSpace=wrap;html=1;" vertex="1" parent="1">
          <mxGeometry x="210" y="238" width="180" height="260" as="geometry" />
        </mxCell>
        <mxCell id="yqzfMos9_s5q--L2E6B0-3" value="&lt;font style=&quot;font-size: 20px;&quot;&gt;Container 2&lt;br&gt;&lt;br&gt;&lt;br&gt;&lt;br&gt;env: ...&lt;br&gt;connmad: ...&lt;br&gt;volumes: ...&lt;br&gt;&lt;/font&gt;" style="rounded=1;whiteSpace=wrap;html=1;" vertex="1" parent="1">
          <mxGeometry x="720" y="238" width="180" height="260" as="geometry" />
        </mxCell>
        <mxCell id="yqzfMos9_s5q--L2E6B0-23" value="" style="endArrow=classic;startArrow=classic;html=1;rounded=0;" edge="1" parent="1" source="yqzfMos9_s5q--L2E6B0-2" target="yqzfMos9_s5q--L2E6B0-3">
          <mxGeometry width="50" height="50" relative="1" as="geometry">
            <mxPoint x="560" y="240" as="sourcePoint" />
            <mxPoint x="610" y="190" as="targetPoint" />
          </mxGeometry>
        </mxCell>
        <mxCell id="yqzfMos9_s5q--L2E6B0-25" value="&lt;font style=&quot;font-size: 18px;&quot;&gt;Volumes : EmptyDir&lt;/font&gt;" style="edgeLabel;html=1;align=center;verticalAlign=middle;resizable=0;points=[];movable=0;rotatable=0;deletable=0;editable=0;locked=1;connectable=0;" vertex="1" connectable="0" parent="yqzfMos9_s5q--L2E6B0-23">
          <mxGeometry x="-0.0303" y="-3" relative="1" as="geometry">
            <mxPoint y="-21" as="offset" />
          </mxGeometry>
        </mxCell>
        <mxCell id="yqzfMos9_s5q--L2E6B0-28" value="" style="endArrow=classic;startArrow=classic;html=1;rounded=0;" edge="1" parent="1">
          <mxGeometry width="50" height="50" relative="1" as="geometry">
            <mxPoint x="390" y="430" as="sourcePoint" />
            <mxPoint x="720" y="430" as="targetPoint" />
          </mxGeometry>
        </mxCell>
        <mxCell id="yqzfMos9_s5q--L2E6B0-29" value="&lt;font style=&quot;font-size: 18px;&quot;&gt;Network: LocalHost&lt;br&gt;&lt;/font&gt;" style="edgeLabel;html=1;align=center;verticalAlign=middle;resizable=1;points=[];movable=1;rotatable=1;deletable=1;editable=1;locked=0;connectable=1;" vertex="1" connectable="0" parent="yqzfMos9_s5q--L2E6B0-28">
          <mxGeometry x="-0.0303" y="-3" relative="1" as="geometry">
            <mxPoint y="-21" as="offset" />
          </mxGeometry>
        </mxCell>
        <mxCell id="yqzfMos9_s5q--L2E6B0-30" value="&lt;font style=&quot;font-size: 52px;&quot;&gt;POD&lt;/font&gt;" style="text;html=1;align=center;verticalAlign=middle;resizable=0;points=[];autosize=1;fillColor=none;fontColor=#FFFFFF;strokeColor=none;fontStyle=1" vertex="1" parent="1">
          <mxGeometry x="755" y="-160" width="140" height="80" as="geometry" />
        </mxCell>
        <mxCell id="yqzfMos9_s5q--L2E6B0-32" style="edgeStyle=orthogonalEdgeStyle;rounded=0;orthogonalLoop=1;jettySize=auto;html=1;curved=1;" edge="1" parent="1" source="yqzfMos9_s5q--L2E6B0-31" target="yqzfMos9_s5q--L2E6B0-3">
          <mxGeometry relative="1" as="geometry">
            <Array as="points">
              <mxPoint x="300" y="180" />
              <mxPoint x="810" y="180" />
            </Array>
          </mxGeometry>
        </mxCell>
        <mxCell id="yqzfMos9_s5q--L2E6B0-34" value="&lt;font style=&quot;font-size: 19px;&quot;&gt;Init Container exit..&lt;br&gt;&lt;/font&gt;" style="edgeLabel;html=1;align=center;verticalAlign=middle;resizable=0;points=[];labelBackgroundColor=none;" vertex="1" connectable="0" parent="yqzfMos9_s5q--L2E6B0-32">
          <mxGeometry x="-0.6301" y="26" relative="1" as="geometry">
            <mxPoint x="112" as="offset" />
          </mxGeometry>
        </mxCell>
        <mxCell id="yqzfMos9_s5q--L2E6B0-33" style="edgeStyle=orthogonalEdgeStyle;rounded=0;orthogonalLoop=1;jettySize=auto;html=1;" edge="1" parent="1" source="yqzfMos9_s5q--L2E6B0-31" target="yqzfMos9_s5q--L2E6B0-2">
          <mxGeometry relative="1" as="geometry" />
        </mxCell>
        <mxCell id="yqzfMos9_s5q--L2E6B0-31" value="&lt;font style=&quot;font-size: 20px;&quot;&gt;Init Container&lt;br&gt;&lt;br&gt;&lt;br&gt;command: nslookup ...&lt;br&gt;&lt;/font&gt;" style="rounded=1;whiteSpace=wrap;html=1;" vertex="1" parent="1">
          <mxGeometry x="210" y="-130" width="180" height="240" as="geometry" />
        </mxCell>
      </root>
    </mxGraphModel>
  </diagram>
</mxfile>
